<?xml version="1.0" encoding="UTF-8"?>
<svg id="logo_light" data-name="logo light" xmlns="http://www.w3.org/2000/svg" viewBox="0 0 500 300">
  <defs>
    <style>
      .cls-1 {
        fill: #eaf5f5;
        stroke-width: 0px;
      }
    </style>
  </defs>
  <path class="cls-1" d="M175.75,199.19h-14.98c-2.41,0-4.37-1.96-4.37-4.37v-89.64c0-2.41,1.96-4.37,4.37-4.37h13.4c1.39,0,2.69.66,3.51,1.77l39.41,53.24c.16.22.42.35.69.35h0c.48,0,.86-.39.86-.86v-50.13c0-2.41,1.96-4.37,4.37-4.37h14.98c2.41,0,4.37,1.96,4.37,4.37v89.64c0,2.41-1.96,4.37-4.37,4.37h-13.26c-1.39,0-2.7-.66-3.52-1.78l-39.54-53.78c-.16-.22-.42-.35-.69-.35h0c-.48,0-.86.39-.86.86v50.68c0,2.41-1.96,4.37-4.37,4.37Z"/>
  <path class="cls-1" d="M284.02,199.19h-11.91c-3.62,0-6.56-2.94-6.56-6.56v-85.27c0-3.62,2.94-6.56,6.56-6.56h11.91c3.62,0,6.56,2.94,6.56,6.56v34.85c0,.48.39.86.86.86h.01c.27,0,.52-.12.68-.33l30.5-39.39c1.24-1.6,3.16-2.54,5.19-2.54h10.18c5.47,0,8.53,6.3,5.16,10.6l-25.34,32.34c-.23.29-.24.69-.04,1l29.01,44.29c2.86,4.36-.27,10.15-5.49,10.15h-13.66c-2.24,0-4.32-1.14-5.52-3.02l-22.23-34.75c-.32-.5-1.03-.53-1.4-.07l-7.73,9.79c-.12.15-.18.34-.18.53v20.96c0,3.62-2.94,6.56-6.56,6.56Z"/>
  <path class="cls-1" d="M369.8,112.09c8.77-9.3,20.57-13.94,35.39-13.94s26.59,4.65,35.32,13.94c8.73,9.3,13.09,21.92,13.09,37.87s-4.36,28.65-13.09,37.94c-8.73,9.3-20.5,13.94-35.32,13.94s-26.73-4.65-35.45-13.94c-8.73-9.3-13.09-21.94-13.09-37.94s4.39-28.58,13.16-37.87ZM405.19,118.88c-6.95,0-12.53,2.82-16.74,8.45s-6.31,13.18-6.31,22.64,2.09,17.07,6.27,22.7c4.18,5.64,9.77,8.45,16.77,8.45s12.52-2.82,16.7-8.45c4.18-5.64,6.27-13.2,6.27-22.7s-2.1-17-6.31-22.64-9.76-8.45-16.67-8.45Z"/>
  <path class="cls-1" d="M74.86,193.97c-.6-1.35-.85-2.74-.77-4.24.09-1.87.2-3.73.61-5.57.09-.38.15-.8.35-1.12.8-1.34.54-2.66.12-4.04-.71-2.29-1.43-4.59-1.5-7.02-.02-.72.09-1.42.31-2.09.39-1.19,1.31-1.61,2.54-1.18,2.13.74,4.23,1.56,6.27,2.57.69.34,1.4.66,2.08,1.03,1.12.61,2.32,1.46,3.56,1.46,1.93.01,3.85,0,5.78,0,1.65,0,3.18-1.07,4.64-1.85,2.25-1.2,4.58-2.24,7.04-2.94.65-.19,1.32-.45,2.03-.2.98.35,1.54,1.24,1.55,2.3.04,2.77-.9,5.33-1.63,7.94-.16.58-.39,1.13-.6,1.7-.12.33-.1.62.02.95.45,1.22,1.08,2.36,1.37,3.64.72,3.18.43,6.24-.87,9.24-.3.69-.65,1.35-1.05,1.96-.74,1.16.1,2.68,1.48,2.68h20.35c5.59,0,9.53-5.48,7.75-10.78l-25.9-77.06c-2.12-6.3-8.03-10.55-14.68-10.55h-8.35c-6.65,0-12.56,4.25-14.68,10.56l-25.84,77.05c-1.78,5.29,2.16,10.77,7.75,10.77h20.16c1.37,0,2.21-1.51,1.48-2.67-.51-.81-.96-1.66-1.36-2.56ZM90.12,126.51c2.4-.48,4.61,5.54,6.06,12.82,1.46,7.28-3.59,22.07-6,22.55-2.4.48,4.22-14.66-1.78-21.31-3.69-4.09-.69-13.58,1.71-14.06Z"/>
</svg>